<?xml version="1.0" standalone="no"?>
<!DOCTYPE svg PUBLIC "-//W3C//DTD SVG 20010904//EN"
 "http://www.w3.org/TR/2001/REC-SVG-20010904/DTD/svg10.dtd">
<svg version="1.0" xmlns="http://www.w3.org/2000/svg"
 width="387.000000pt" height="387.000000pt" viewBox="0 0 387.000000 387.000000"
 preserveAspectRatio="xMidYMid meet">
<metadata>
Created by potrace 1.11, written by Peter Selinger 2001-2013
</metadata>
<g transform="translate(0.000000,387.000000) scale(0.100000,-0.100000)"
fill="#000000" stroke="none">
<path d="M1330 3859 c-87 -11 -118 -18 -178 -43 -217 -88 -325 -256 -357 -559
-1 -12 -3 -256 -4 -543 l-1 -521 -87 -1 c-49 0 -95 -1 -104 -1 -13 -1 -15 -24
-15 -168 l1 -168 100 -1 100 -1 3 -896 2 -897 185 0 185 0 0 898 0 897 262 0
263 0 0 167 c1 142 -1 167 -15 170 -8 2 -127 3 -263 2 l-249 -1 5 546 c4 586
5 598 57 671 25 35 91 75 140 85 62 13 167 7 245 -14 41 -12 76 -21 78 -21 8
0 0 351 -8 358 -34 31 -231 54 -345 41z"/>
<path d="M2534 2239 c-146 -19 -278 -102 -379 -238 l-25 -35 0 112 c0 62 -3
112 -7 113 -36 4 -347 3 -354 -2 -7 -4 -13 -1522 -9 -2096 l0 -33 185 0 185 0
1 623 c0 342 2 645 5 672 28 339 135 505 344 534 36 5 76 7 90 5 80 -12 100
-18 146 -43 l51 -28 63 121 c35 67 74 141 87 165 12 24 21 47 18 51 -3 5 -42
22 -88 38 -114 41 -213 54 -313 41z"/>
<path d="M2972 518 c-107 -18 -198 -116 -209 -223 -9 -86 11 -140 76 -206 65
-64 120 -85 205 -76 64 6 99 23 149 72 52 51 74 99 76 172 6 161 -140 289
-297 261z"/>
</g>
</svg>
